<?xml version="1.0" standalone="no"?>
<!DOCTYPE svg PUBLIC "-//W3C//DTD SVG 1.1//EN" "http://www.w3.org/Graphics/SVG/1.1/DTD/svg11.dtd">
<svg xmlns="http://www.w3.org/2000/svg" xmlns:xlink="http://www.w3.org/1999/xlink" xmlns:xodm="http://www.corel.com/coreldraw/odm/2003" xml:space="preserve" width="20000" height="10000" version="1.1" style="shape-rendering:geometricPrecision; text-rendering:geometricPrecision; image-rendering:optimizeQuality; fill-rule:evenodd; clip-rule:evenodd" viewBox="0 0 20000 10000">
 <defs>
  <style type="text/css">
   <![CDATA[
    .fil0 {fill:#FEFEFE}
    .fil1 {fill:#FEFEFE;fill-rule:nonzero}
   ]]>
  </style>
 </defs>
 <g id="Layer_x0020_1">
  <metadata id="CorelCorpID_0Corel-Layer"/>
  <g id="_4419800352">
   <path class="fil0" d="M8793.04 940.38c-2828.22,-649.1 -5799.02,-649.1 -8627.24,0 -252.82,3731.95 1088.3,7141.23 4313.7,8613.67 3385.96,-1545.73 4550.01,-5123.07 4313.54,-8613.67zm-5663.41 2128.74c2.09,-186.94 -2.1,-350.94 0,-537.88 6.28,-579.44 -146.96,-978.3 -918.45,-990.78 -721.64,-11.75 -983.77,357.86 -982.39,842 0,941.4 0,1486.67 0,2428.06 -15.22,457.53 221.48,1167.52 917.71,1484.48 760.74,303.65 980.39,-121.53 982.48,-688.57 3.38,-298.65 -2.73,-748.89 0.65,-1047.54l-620.81 -204.8c0,0 2.38,590.37 0,765.74 -9.29,754.53 -16.22,1176.08 -360.59,1038.79 -340.47,-147.68 -326.16,-687.85 -319.87,-1399.94l1.64 -1994.67 0 35.62 1.65 -782.23c0,-187.04 151.6,-338.73 338.73,-338.73 187.05,0 338.74,151.69 338.74,338.73l-0.27 608.5c0.09,9.66 0.18,18.95 0.27,27.96l0 226.68c0,10.93 -0.09,21.68 -0.09,32.16 0.09,50.92 0.64,97.57 -0.18,156.24 204.69,3.36 414.14,5.47 620.78,0.18zm3017.69 1726.82l697.24 -224.3c70.06,496.16 113.61,918.8 180.85,1393.92l590.64 -194.88c-176.56,-1384.54 -381.28,-2620.21 -596.47,-4230.14 -251.46,0 -502.9,0 -754.36,0 -118.79,1166.98 -252.99,2177.44 -374.9,3396.98 0.45,-5.83 0.83,-11.58 1.09,-15.4 -0.26,3.18 -0.55,7.84 -1.18,15.4 -53.47,503.27 -107.41,953.14 -162.16,1462.88l260.84 -92.83c53.64,-568.05 105.85,-952.79 158.41,-1511.63zm312.41 -2938.89c128.64,983.68 229.03,1570.75 353.67,2497.31l-637.65 204.8c97.48,-1030.5 187.23,-1713.25 283.98,-2702.11zm-3059.07 243.44l0 4613.78c-5.73,598.47 212.28,1343.18 1003.62,1366.76 264.67,-0.64 468.56,-92.19 622.17,-231.23l413.79 150.87 0.02 -3634.57 0 -11.85 -1132.17 0.02 0 13.29c0,65.14 0,126.37 0,191.5l497.79 0c2.82,743.42 3.91,1495.41 6.74,2238.84 2.91,756.83 -32.72,1122.79 -408.34,1126.89 -375.54,-7.38 -380.36,-371.44 -377.45,-1128.17 5.74,-1460.89 -5.74,-2921.86 0,-4382.74l0 -730.94c0,-131.55 65.41,-247.62 165.27,-318.14 30.43,-21.5 64.05,-38.63 100.03,-50.74 39.09,-13.12 80.73,-20.59 124.27,-20.59 215.1,0 389.57,174.38 389.57,389.57l0 997.98c207.54,6.01 427.46,0.82 634.27,0 -1.91,-202.08 -3.73,-404.06 -5.64,-606.14 -5.38,-536.16 -257.93,-928.36 -1029.04,-930.47 -736.04,2.01 -999.43,420.37 -1004.9,956.08z"/>
   <path class="fil1" d="M10776.6 2729.85c375.45,0 518.76,-256.93 545.08,-380.37l-223.93 0c-29.61,60.94 -118.53,177.84 -321.15,177.84 -219.02,0 -360.7,-182.76 -360.7,-401.77 0,-219.02 141.58,-401.78 360.7,-401.78 187.76,0 283.24,115.25 317.87,176.21l227.22 -0.01c-31.25,-136.67 -184.4,-378.73 -545.08,-378.73 -342.56,0 -589.55,261.84 -589.55,604.4 0,342.56 247.08,604.21 589.54,604.21zm8818.78 2497.66l-362.32 475.85 -363.97 -475.85 -281.53 0 525.33 676.83 0 492.33 227.21 0 0 -493.97 508.83 -675.19 -253.55 0zm-1900.46 851.39l-349.12 -851.39 -331 0 0 1169.16 204.18 0 0 -950.14 388.66 955.16 149.86 0 391.93 -963.46 0 958.44 214.1 0 0 -1169.16 -317.86 0 -350.75 851.39zm-1747.24 -200.98l433.11 0 0 -192.6 -433.11 0 0 -266.85 726.2 0 0 -190.96 -946.86 0 0 1169.16 1012.74 0 0 -195.97 -792.08 0 0 -322.78zm-1157.77 -650.41l-472.66 0 0 1169.26 472.66 -0.01c375.45,0 625.8,-220.66 625.8,-584.62 0,-368.98 -251.9,-584.63 -625.8,-584.63zm-3.28 974.84l-248.63 0 0 -780.6 248.63 0c243.71,0 403.42,141.57 403.42,390.3 0.09,242.16 -159.62,390.3 -403.42,390.3zm-1457.43 -979.84l-525.32 1174.17 222.31 -0.01 107.06 -240.43 589.54 0.01 107.05 240.43 235.51 -0.01 -526.95 -1174.18 -209.2 0.02zm-111.96 742.69l210.82 -472.65 210.81 472.65 -421.63 0zm-1105.03 -554.93c187.77,0 283.25,115.24 317.87,176.2l227.22 0c-31.25,-136.66 -184.49,-378.72 -545.09,-378.72 -342.56,0 -589.55,261.84 -589.55,604.4 0,342.56 246.99,604.4 589.55,604.4 375.46,0 518.77,-256.93 545.09,-380.37l-223.94 -0.01c-29.61,60.94 -118.53,177.84 -321.16,177.84 -219.01,0 -360.69,-182.76 -360.69,-401.77 0,-219.02 141.69,-401.97 360.7,-401.97zm-1457.42 -187.76l-525.32 1174.17 222.3 -0.01 107.06 -240.43 589.54 0.01 107.05 240.43 235.51 -0.01 -526.95 -1174.18 -209.19 0.02zm-111.97 742.69l210.82 -472.65 210.81 472.65 -421.63 0zm6513.16 -2581.03l0 1169.15 943.59 0 0 -199.25 -722.93 0 0 -969.9 -220.66 0zm-988.13 -4.93l-525.32 1174.08 222.3 0 107.06 -240.43 589.54 0.01 107.05 240.44 235.51 -0.02 -526.95 -1174.17 -209.19 0 0 0.09zm-111.97 742.7l210.81 -472.65 210.82 472.65 -421.63 0zm-615.96 -421.64c0,-197.6 -136.66,-316.22 -391.94,-316.22l-625.81 0 0 1169.24 635.65 0c270.04,0 408.42,-130.1 408.42,-334.27 0,-153.15 -93.84,-246.99 -202.52,-281.6 88.92,-31.25 176.2,-108.68 176.2,-237.15zm-800.28 -128.46l383.73 0c125.18,0 189.41,44.46 189.41,143.31 0,95.48 -62.59,143.31 -189.41,143.31l-383.73 0 0 -286.62zm391.93 793.81l-391.93 0 0 -321.16 391.93 0c139.94,0 209.19,52.66 209.19,159.72 -0.09,105.41 -65.97,161.44 -209.19,161.44zm-1531.58 207.45c347.48,0 612.6,-255.28 612.6,-604.4 0,-350.76 -265.12,-604.4 -612.6,-604.4 -347.48,0 -612.6,253.64 -612.6,604.4 0.01,350.85 261.85,604.4 612.6,604.4zm0 -1007.82c232.23,0 387.02,181.12 387.02,403.42 0,223.94 -154.79,403.51 -387.02,403.51 -233.87,0 -385.37,-177.85 -385.37,-403.51 0,-222.3 153.15,-403.42 385.37,-403.42zm-1714.33 -181.11l0 1169.15 943.67 0 0 -199.25 -723.01 0 0 -969.9 -220.66 0zm-857.95 1190.57c268.4,0 436.4,-102.12 515.48,-172.91l0 -522.04 -624.16 -0.01 0 187.76 411.7 0.02 0 238.79c-47.74,32.98 -149.87,72.43 -301.38,72.43 -256.92,0 -416.62,-169.65 -416.62,-413.35 0,-230.59 144.96,-406.79 375.46,-406.79 172.91,0 258.55,82.36 293.08,125.17l233.85 0c-39.54,-125.17 -182.76,-321.15 -526.95,-321.15 -350.76,0 -601.11,253.64 -601.11,602.75 0,360.7 251.99,609.33 640.65,609.33zm7473.24 -2755.59l709.72 895.85 172.91 0 0 -1174.18 -212.45 0 0 802.01 -627.36 -802.01 -256.92 0 0 1169.25 214.1 0 0 -890.92zm-1136.37 910.7c347.47,0 612.6,-255.28 612.6,-604.4 0,-350.77 -265.13,-604.4 -612.6,-604.4 -347.48,0 -612.6,253.63 -612.6,604.4 0.01,350.76 261.85,604.4 612.6,604.4zm0 -1007.91c232.23,0 387.01,181.12 387.01,403.42 0,223.94 -154.78,403.5 -387.01,403.5 -233.88,0 -385.37,-177.84 -385.37,-403.5 0.09,-222.21 153.24,-403.42 385.37,-403.42zm-1358.57 821.77c-214.1,0 -307.93,-98.85 -339.27,-172.92l-235.52 0c44.46,166.36 194.32,360.7 574.69,360.7 330.99,0 497.34,-153.16 497.34,-363.97 0,-243.7 -181.11,-337.54 -413.35,-358.96 -79.08,-8.2 -133.37,-14.85 -205.8,-21.41 -123.54,-14.84 -191.05,-60.94 -191.05,-139.93 0,-85.64 83.99,-139.94 243.7,-139.94 192.69,0 276.69,79.08 312.85,136.67l225.61 -0.02c-34.62,-149.86 -171.27,-324.42 -538.52,-324.42 -278.33,0 -467.65,125.17 -467.65,334.27 0,209.18 166.36,322.78 398.5,344.2l207.45 21.41c120.17,14.84 202.53,51.02 202.53,163.07 0.17,93.75 -93.67,161.25 -271.51,161.25zm-1070.49 -792.07l0 958.43 214.1 0 0 -1169.25 -317.78 0 -350.76 851.38 -349.21 -851.38 -330.99 0 0 1169.25 204.26 0 0 -950.23 388.66 955.16 149.77 0 391.95 -963.36zm-1730.75 958.43l222.3 0 0 -1169.26 -222.3 0 0 1169.26zm-329.34 -820.13c0,-230.59 -143.31,-349.12 -400.13,-349.12l-653.78 0 0 1169.26 220.66 -0.01 0 -480.85 378.72 0 265.13 480.85 233.86 0 -275.05 -503.9c149.87,-46.19 230.59,-158.16 230.59,-316.23zm-418.35 146.58l-414.99 0 0 -299.73 414.99 0c126.82,0 191.05,46.09 191.05,153.15 0,97.11 -64.23,146.58 -191.05,146.58z"/>
   <path class="fil1" d="M2509.93 2779.13c-0.09,17.58 -0.18,36.35 -0.45,57.12 0.27,-19.3 0.36,-38.26 0.45,-57.12z"/>
  </g>
 </g>
</svg>